<svg width="12" height="16" viewBox="0 0 12 16" fill="none" xmlns="http://www.w3.org/2000/svg">
<path d="M0.738381 0H11.0757C11.2715 0 11.4594 0.0816581 11.5978 0.227011C11.7363 0.372363 11.8141 0.569503 11.8141 0.775063V15.6121C11.8142 15.6814 11.7966 15.7494 11.7631 15.8092C11.7296 15.8689 11.6815 15.9181 11.6237 15.9516C11.5659 15.9852 11.5007 16.0019 11.4347 16C11.3687 15.998 11.3044 15.9776 11.2485 15.9407L5.90705 12.4243L0.5656 15.9399C0.509754 15.9768 0.44553 15.9972 0.379603 15.9992C0.313676 16.0011 0.248455 15.9845 0.19072 15.951C0.132985 15.9176 0.084845 15.8685 0.0513048 15.8089C0.0177646 15.7493 4.90808e-05 15.6813 0 15.6121V0.775063C0 0.569503 0.0777936 0.372363 0.216267 0.227011C0.35474 0.0816581 0.54255 0 0.738381 0ZM10.3373 1.55013H1.47676V13.5109L5.90705 10.5959L10.3373 13.5109V1.55013Z" fill="white"/>
</svg>
