<svg width="12" height="16" viewBox="0 0 12 16" fill="none" xmlns="http://www.w3.org/2000/svg">
<path d="M0.738378 0H11.0757C11.2715 0 11.4593 0.0816578 11.5978 0.22701C11.7362 0.372361 11.814 0.569501 11.814 0.775059V15.612C11.8141 15.6813 11.7965 15.7494 11.763 15.8091C11.7295 15.8688 11.6814 15.918 11.6236 15.9516C11.5659 15.9851 11.5006 16.0018 11.4346 15.9999C11.3686 15.998 11.3043 15.9775 11.2484 15.9406L5.90702 12.4242L0.565597 15.9399C0.509752 15.9767 0.445528 15.9972 0.379601 15.9991C0.313675 16.0011 0.248454 15.9844 0.190719 15.951C0.132985 15.9175 0.0848446 15.8684 0.0513045 15.8088C0.0177645 15.7492 4.90806e-05 15.6813 0 15.612V0.775059C0 0.569501 0.0777933 0.372361 0.216266 0.22701C0.354739 0.0816578 0.542548 0 0.738378 0ZM10.3373 1.55012H1.47676V13.5108L5.90702 10.5958L10.3373 13.5108V1.55012Z" fill="white"/>
</svg>
