<svg width="15" height="5" viewBox="0 0 15 5" fill="none" xmlns="http://www.w3.org/2000/svg">
<path d="M0.439453 4.64176H14.5605C14.8032 4.64176 15 4.53267 15 4.39812C15 4.26357 14.8032 4.15448 14.5605 4.15448H14.0332V1.10813C14.0332 0.496112 13.1401 0 12.0347 0C11.573 0 11.1227 0.0894801 10.7667 0.251418L10.4906 0.376957C9.87307 0.175436 9.06331 0.221467 8.53359 0.515148L7.87069 0.882668C7.69907 0.977817 7.69907 1.13207 7.87069 1.22722L9.52798 2.14605C9.69957 2.24119 9.97784 2.24121 10.1495 2.14605C10.8532 1.7559 10.8095 1.77853 10.8124 1.77853C11.3231 1.49535 11.4186 1.06778 11.0989 0.730605L11.3241 0.628148C11.5225 0.537904 11.7732 0.487877 12.0298 0.487292C12.6303 0.484304 13.1543 0.754953 13.1543 1.10813V4.1545C12.704 4.1545 0.885439 4.1545 0.439453 4.1545C0.196758 4.1545 0 4.26358 0 4.39814C0 4.53269 0.196758 4.64176 0.439453 4.64176Z" fill="white"/>
</svg>
