<svg width="15" height="5" viewBox="0 0 15 5" fill="none" xmlns="http://www.w3.org/2000/svg">
<path d="M0.439454 4.64177H14.5606C14.8033 4.64177 15 4.53269 15 4.39813C15 4.26358 14.8033 4.15449 14.5606 4.15449H14.0332V1.10813C14.0332 0.496113 13.1401 0 12.0347 0C11.5731 0 11.1227 0.0894803 10.7667 0.251419L10.4907 0.376958C9.8731 0.175436 9.06333 0.221468 8.53361 0.51515L7.87071 0.88267C7.69909 0.977819 7.69909 1.13208 7.87071 1.22722L9.52801 2.14605C9.6996 2.2412 9.97786 2.24122 10.1495 2.14605C10.8532 1.7559 10.8095 1.77853 10.8124 1.77853C11.3232 1.49536 11.4187 1.06779 11.0989 0.730607L11.3242 0.628149C11.5226 0.537905 11.7732 0.487878 12.0298 0.487294C12.6303 0.484305 13.1543 0.754955 13.1543 1.10813V4.15451C12.7041 4.15451 0.885441 4.15451 0.439454 4.15451C0.196758 4.15451 0 4.2636 0 4.39815C0 4.5327 0.196758 4.64177 0.439454 4.64177Z" fill="white"/>
</svg>
