<svg width="15" height="7" viewBox="0 0 15 7" fill="none" xmlns="http://www.w3.org/2000/svg">
<path d="M15 2.90983V6.65103H13.5V5.40396H1.5V6.65103H0V0H1.5V4.15689H7.5V1.24707H12C12.7957 1.24707 13.5587 1.42225 14.1213 1.73408C14.6839 2.04591 15 2.46884 15 2.90983ZM4.5 3.74121C3.90326 3.74121 3.33097 3.60982 2.90901 3.37595C2.48705 3.14208 2.25 2.82488 2.25 2.49414C2.25 2.16339 2.48705 1.8462 2.90901 1.61233C3.33097 1.37846 3.90326 1.24707 4.5 1.24707C5.09674 1.24707 5.66903 1.37846 6.09099 1.61233C6.51295 1.8462 6.75 2.16339 6.75 2.49414C6.75 2.82488 6.51295 3.14208 6.09099 3.37595C5.66903 3.60982 5.09674 3.74121 4.5 3.74121Z" fill="white"/>
</svg>
