<svg width="15" height="5" viewBox="0 0 15 5" fill="none" xmlns="http://www.w3.org/2000/svg">
<path d="M0.439453 4.64043H14.5605C14.8032 4.64043 15 4.53137 15 4.39686C15 4.26234 14.8032 4.15329 14.5605 4.15329H14.0332V1.10781C14.0332 0.495969 13.1401 0 12.0347 0C11.5731 0 11.1227 0.0894544 10.7667 0.251346L10.4907 0.376848C9.87308 0.175385 9.06331 0.221403 8.5336 0.515L7.87069 0.882414C7.69907 0.977536 7.69907 1.13175 7.87069 1.22687L9.52799 2.14543C9.69958 2.24055 9.97784 2.24057 10.1495 2.14543C10.8532 1.75539 10.8095 1.77801 10.8124 1.77801C11.3232 1.49492 11.4186 1.06748 11.0989 0.730395L11.3242 0.627967C11.5226 0.537749 11.7732 0.487737 12.0298 0.487152C12.6303 0.484164 13.1543 0.754736 13.1543 1.10781V4.15331C12.704 4.15331 0.88544 4.15331 0.439453 4.15331C0.196758 4.15331 0 4.26236 0 4.39687C0 4.53139 0.196758 4.64043 0.439453 4.64043Z" fill="white"/>
</svg>
