<svg width="15" height="7" viewBox="0 0 15 7" fill="none" xmlns="http://www.w3.org/2000/svg">
<path d="M15 2.91066V6.65294H13.5V5.40552H1.5V6.65294H0V0H1.5V4.15809H7.5V1.24743H12C12.7956 1.24743 13.5587 1.42266 14.1213 1.73458C14.6839 2.04649 15 2.46955 15 2.91066ZM4.5 3.74228C3.90326 3.74228 3.33096 3.61086 2.90901 3.37692C2.48705 3.14298 2.25 2.82569 2.25 2.49485C2.25 2.16402 2.48705 1.84673 2.90901 1.61279C3.33096 1.37885 3.90326 1.24743 4.5 1.24743C5.09673 1.24743 5.66903 1.37885 6.09099 1.61279C6.51294 1.84673 6.75 2.16402 6.75 2.49485C6.75 2.82569 6.51294 3.14298 6.09099 3.37692C5.66903 3.61086 5.09673 3.74228 4.5 3.74228Z" fill="white"/>
</svg>
