<svg width="15" height="12" viewBox="0 0 15 12" fill="none" xmlns="http://www.w3.org/2000/svg">
<path d="M15 5.25V12H13.5V9.75H1.5V12H0V0H1.5V7.5H7.5V2.25H12C12.7957 2.25 13.5587 2.56607 14.1213 3.12868C14.6839 3.69129 15 4.45435 15 5.25ZM4.5 6.75C3.90326 6.75 3.33097 6.51295 2.90901 6.09099C2.48705 5.66903 2.25 5.09674 2.25 4.5C2.25 3.90326 2.48705 3.33097 2.90901 2.90901C3.33097 2.48705 3.90326 2.25 4.5 2.25C5.09674 2.25 5.66903 2.48705 6.09099 2.90901C6.51295 3.33097 6.75 3.90326 6.75 4.5C6.75 5.09674 6.51295 5.66903 6.09099 6.09099C5.66903 6.51295 5.09674 6.75 4.5 6.75Z" fill="white"/>
</svg>
