<svg width="11" height="12" viewBox="0 0 11 12" fill="none" xmlns="http://www.w3.org/2000/svg">
<path d="M10.2095 4.80438H9.00834H7.8072V3.00266L7.8072 0.600371C7.8072 0.268254 7.53874 -0.000202158 7.20662 -0.000202158H3.60318C3.27107 -0.000202158 3.00261 0.268254 3.00261 0.600371L3.00261 3.60324V4.80438H2.40204H0.600318C0.369098 4.80438 0.159499 4.93711 0.0592027 5.14431C-0.0404921 5.35271 -0.0128668 5.59954 0.131271 5.78031L4.93586 11.786C5.16467 12.0713 5.64513 12.0713 5.87395 11.786L10.6785 5.78031C10.8227 5.59954 10.8503 5.35271 10.7506 5.14431C10.6503 4.93711 10.4407 4.80438 10.2095 4.80438Z" fill="#00B907"/>
</svg>
