<svg width="15" height="9" viewBox="0 0 15 9" fill="none" xmlns="http://www.w3.org/2000/svg">
<path d="M0.439453 8.3724H14.5605C14.8032 8.3724 15 8.17565 15 7.93295C15 7.69025 14.8032 7.4935 14.5605 7.4935H14.0332V1.99875C14.0332 0.894844 13.1401 0 12.0347 0C11.5731 0 11.1227 0.161396 10.7667 0.453486L10.4907 0.679922C9.87308 0.316436 9.06331 0.399463 8.5336 0.92918L7.87069 1.59208C7.69907 1.7637 7.69907 2.04193 7.87069 2.21355L9.52799 3.87085C9.69958 4.04247 9.97784 4.0425 10.1495 3.87085C10.8532 3.16714 10.8095 3.20795 10.8124 3.20795C11.3232 2.69719 11.4186 1.92598 11.0989 1.3178L11.3242 1.133C11.5226 0.970225 11.7732 0.87999 12.0298 0.878936C12.6303 0.873545 13.1543 1.36172 13.1543 1.99875V7.49353C12.704 7.49353 0.88544 7.49353 0.439453 7.49353C0.196758 7.49353 0 7.69028 0 7.93298C0 8.17567 0.196758 8.3724 0.439453 8.3724Z" fill="white"/>
</svg>
