<svg width="12" height="15" viewBox="0 0 12 15" fill="none" xmlns="http://www.w3.org/2000/svg">
<path d="M0.72661 0H10.8991C11.0919 0 11.2767 0.0765533 11.4129 0.212819C11.5492 0.349085 11.6258 0.533901 11.6258 0.72661V14.6361C11.6258 14.7011 11.6085 14.7649 11.5755 14.8208C11.5426 14.8768 11.4952 14.923 11.4384 14.9544C11.3816 14.9859 11.3173 15.0015 11.2524 14.9997C11.1874 14.9979 11.1242 14.9787 11.0692 14.9442L5.81288 11.6476L0.556583 14.9435C0.501628 14.978 0.438427 14.9972 0.373551 14.999C0.308676 15.0008 0.244494 14.9852 0.18768 14.9539C0.130865 14.9225 0.0834924 14.8765 0.0504869 14.8206C0.0174814 14.7647 4.82984e-05 14.701 0 14.6361V0.72661C0 0.533901 0.0765534 0.349085 0.212819 0.212819C0.349085 0.0765533 0.533901 0 0.72661 0ZM10.1725 1.45322H1.45322V12.6663L5.81288 9.93348L10.1725 12.6663V1.45322Z" fill="white"/>
</svg>
