<svg width="102" height="102" viewBox="0 0 102 102" fill="none" xmlns="http://www.w3.org/2000/svg">
<g filter="url(#filter0_f_89_1907)">
<path d="M45 52H41C40.7348 52 40.4804 52.1054 40.2929 52.2929C40.1054 52.4804 40 52.7348 40 53V61C40 61.2652 40.1054 61.5196 40.2929 61.7071C40.4804 61.8946 40.7348 62 41 62H45C45.2652 62 45.5196 61.8946 45.7071 61.7071C45.8946 61.5196 46 61.2652 46 61V53C46 52.7348 45.8946 52.4804 45.7071 52.2929C45.5196 52.1054 45.2652 52 45 52ZM44 60H42V54H44V60ZM61 48H57C56.7348 48 56.4804 48.1054 56.2929 48.2929C56.1054 48.4804 56 48.7348 56 49V61C56 61.2652 56.1054 61.5196 56.2929 61.7071C56.4804 61.8946 56.7348 62 57 62H61C61.2652 62 61.5196 61.8946 61.7071 61.7071C61.8946 61.5196 62 61.2652 62 61V49C62 48.7348 61.8946 48.4804 61.7071 48.2929C61.5196 48.1054 61.2652 48 61 48ZM60 60H58V50H60V60ZM53 40H49C48.7348 40 48.4804 40.1054 48.2929 40.2929C48.1054 40.4804 48 40.7348 48 41V61C48 61.2652 48.1054 61.5196 48.2929 61.7071C48.4804 61.8946 48.7348 62 49 62H53C53.2652 62 53.5196 61.8946 53.7071 61.7071C53.8946 61.5196 54 61.2652 54 61V41C54 40.7348 53.8946 40.4804 53.7071 40.2929C53.5196 40.1054 53.2652 40 53 40ZM52 60H50V42H52V60Z" fill="#00D7FF"/>
</g>
<defs>
<filter id="filter0_f_89_1907" x="0" y="0" width="102" height="102" filterUnits="userSpaceOnUse" color-interpolation-filters="sRGB">
<feFlood flood-opacity="0" result="BackgroundImageFix"/>
<feBlend mode="normal" in="SourceGraphic" in2="BackgroundImageFix" result="shape"/>
<feGaussianBlur stdDeviation="20" result="effect1_foregroundBlur_89_1907"/>
</filter>
</defs>
</svg>
