<svg width="14" height="14" viewBox="0 0 14 14" fill="none" xmlns="http://www.w3.org/2000/svg">
<path d="M7.32871 5.5562L3.47698 9.28119L2.16953 8.75591L2.05276 8.87016L3.71679 9.94304L4.82707 11.552L4.94453 11.4384L4.40198 10.1742L8.25371 6.4506L11.2797 10.6772L11.4265 10.5366L9.40804 5.33378L12.4844 2.36054C12.6005 2.24068 12.6639 2.08184 12.6611 1.91761C12.6584 1.75338 12.5897 1.59663 12.4695 1.48049C12.3494 1.36435 12.1873 1.29792 12.0175 1.29524C11.8476 1.29256 11.6834 1.35384 11.5594 1.46614L8.48304 4.44005L3.10362 2.48899L2.95679 2.63028L7.32871 5.5562ZM11.0972 12.6432L8.06983 8.41586L5.94435 10.471L6.4876 11.7352L4.62361 13.5369L2.77431 10.855L0 9.06621L1.86399 7.26388L3.17074 7.78849L5.29622 5.73332L0.924304 2.80741L2.77431 1.01927L8.15443 2.96966L10.6344 0.571734C10.8157 0.392126 11.0322 0.24911 11.2711 0.150974C11.5101 0.052838 11.7668 0.00153349 12.0264 3.38548e-05C12.286 -0.00146578 12.5433 0.0468694 12.7835 0.142238C13.0236 0.237607 13.2418 0.378112 13.4254 0.555611C13.6089 0.733111 13.7543 0.944073 13.8529 1.17627C13.9515 1.40847 14.0015 1.65729 14 1.90831C13.9984 2.15933 13.9453 2.40755 13.8438 2.63859C13.7424 2.86964 13.5944 3.07891 13.4087 3.25427L10.9287 5.65219L12.9465 10.855L11.0965 12.6432H11.0972Z" fill="url(#paint0_linear_89_3893)"/>
<defs>
<linearGradient id="paint0_linear_89_3893" x1="1.11207" y1="-1.50393" x2="30.4187" y2="14.4729" gradientUnits="userSpaceOnUse">
<stop/>
<stop offset="1" stop-color="#161446"/>
</linearGradient>
</defs>
</svg>
