<svg width="18" height="21" viewBox="0 0 18 21" fill="none" xmlns="http://www.w3.org/2000/svg">
<path d="M17 6.02389L11 0.763927C10.45 0.271975 9.73796 0 9.00003 0C8.26211 0 7.55007 0.271975 7.00005 0.763927L1.00009 6.02389C0.682459 6.30796 0.428992 6.65644 0.256565 7.04613C0.084138 7.43581 -0.00329254 7.85776 9.47935e-05 8.28388L9.47935e-05 17.0238C9.47935e-05 17.8195 0.316163 18.5825 0.878769 19.1451C1.44137 19.7077 2.20443 20.0238 3.00007 20.0238H15C15.7956 20.0238 16.5587 19.7077 17.1213 19.1451C17.6839 18.5825 18 17.8195 18 17.0238V8.27388C18.0019 7.84944 17.9138 7.42942 17.7414 7.04157C17.5691 6.65371 17.3163 6.30685 17 6.02389ZM11 18.0238H7.00005V13.0238C7.00005 12.7586 7.1054 12.5043 7.29294 12.3167C7.48047 12.1292 7.73483 12.0238 8.00004 12.0238H10C10.2652 12.0238 10.5196 12.1292 10.7071 12.3167C10.8947 12.5043 11 12.7586 11 13.0238V18.0238ZM16 17.0238C16 17.289 15.8946 17.5434 15.7071 17.7309C15.5196 17.9185 15.2652 18.0238 15 18.0238H13V13.0238C13 12.2282 12.6839 11.4651 12.1213 10.9025C11.5587 10.3399 10.7957 10.0239 10 10.0239H8.00004C7.2044 10.0239 6.44134 10.3399 5.87873 10.9025C5.31613 11.4651 5.00006 12.2282 5.00006 13.0238V18.0238H3.00007C2.73486 18.0238 2.48051 17.9185 2.29297 17.7309C2.10544 17.5434 2.00008 17.289 2.00008 17.0238V8.27388C2.00026 8.13189 2.03067 7.99157 2.0893 7.86226C2.14792 7.73294 2.23341 7.61759 2.34008 7.52388L8.34004 2.27392C8.52253 2.1136 8.75713 2.02518 9.00003 2.02518C9.24294 2.02518 9.47754 2.1136 9.66003 2.27392L15.66 7.52388C15.7667 7.61759 15.8521 7.73294 15.9108 7.86226C15.9694 7.99157 15.9998 8.13189 16 8.27388V17.0238Z" fill="#00D7FF"/>
</svg>
