<svg width="304" height="72" viewBox="0 0 304 72" fill="none" xmlns="http://www.w3.org/2000/svg">
<path d="M0.00118296 36.9416C-0.155449 17.7538 15.2724 2.072 34.4602 1.91537L268.973 0.00102123C288.16 -0.155611 303.842 15.2722 303.999 34.46C304.155 53.6478 288.728 69.3296 269.54 69.4862L35.0274 71.4006C15.8396 71.5572 0.157815 56.1294 0.00118296 36.9416Z" fill="url(#paint0_linear_89_3150)"/>
<path d="M0.435465 36.938C0.280791 17.9901 15.5158 2.50433 34.4637 2.34965L268.976 0.435304C287.924 0.28063 303.41 15.5156 303.565 34.4635C303.719 53.4115 288.484 68.8972 269.536 69.0519L35.0238 70.9663C16.0759 71.1209 0.590139 55.886 0.435465 36.938Z" stroke="url(#paint1_linear_89_3150)" stroke-opacity="0.1" stroke-width="0.866953"/>
<defs>
<linearGradient id="paint0_linear_89_3150" x1="130.121" y1="76.2983" x2="72.0671" y2="-77.5759" gradientUnits="userSpaceOnUse">
<stop/>
<stop offset="1" stop-color="#2D2A6F"/>
</linearGradient>
<linearGradient id="paint1_linear_89_3150" x1="86.1398" y1="1.4935" x2="123.286" y2="82.8408" gradientUnits="userSpaceOnUse">
<stop stop-color="white"/>
<stop offset="1" stop-color="white" stop-opacity="0"/>
</linearGradient>
</defs>
</svg>
