<svg width="9" height="9" viewBox="0 0 9 9" fill="none" xmlns="http://www.w3.org/2000/svg">
<path fill-rule="evenodd" clip-rule="evenodd" d="M1.34456 0.206428C1.09359 -0.0586062 0.675292 -0.0700107 0.410258 0.180956C0.145223 0.431923 0.133818 0.850224 0.384785 1.11526L3.56569 4.47447L0.206477 7.65538C-0.0585581 7.90635 -0.0699622 8.32465 0.181004 8.58968C0.431971 8.85472 0.850272 8.86612 1.11531 8.61515L4.47452 5.43425L7.65543 8.79346C7.90639 9.0585 8.3247 9.0699 8.58973 8.81893C8.85476 8.56797 8.86617 8.14967 8.6152 7.88463L5.4343 4.52542L8.79351 1.34451C9.05855 1.09355 9.06995 0.675244 8.81898 0.410209C8.56802 0.145174 8.14971 0.13377 7.88468 0.384736L4.52547 3.56564L1.34456 0.206428Z" fill="white" fill-opacity="0.87"/>
</svg>
