<svg width="12" height="22" viewBox="0 0 12 22" fill="none" xmlns="http://www.w3.org/2000/svg">
<path d="M0.718672 0H10.7801C10.9707 0 11.1535 0.112279 11.2883 0.312138C11.423 0.511996 11.4988 0.783062 11.4988 1.0657V21.4665C11.4988 21.5618 11.4817 21.6553 11.4491 21.7375C11.4165 21.8196 11.3697 21.8872 11.3134 21.9334C11.2572 21.9795 11.1937 22.0025 11.1295 21.9998C11.0652 21.9972 11.0027 21.969 10.9482 21.9184L5.74938 17.0833L0.550503 21.9173C0.496148 21.9679 0.433638 21.9961 0.369471 21.9987C0.305304 22.0014 0.241823 21.9786 0.185629 21.9326C0.129436 21.8865 0.0825803 21.819 0.0499353 21.7371C0.0172904 21.6551 4.77707e-05 21.5617 0 21.4665V1.0657C0 0.783062 0.0757171 0.511996 0.210494 0.312138C0.345271 0.112279 0.528068 0 0.718672 0ZM10.0614 2.13141H1.43734V18.5774L5.74938 14.5693L10.0614 18.5774V2.13141Z" fill="white"/>
</svg>
