<svg width="15" height="7" viewBox="0 0 15 7" fill="none" xmlns="http://www.w3.org/2000/svg">
<path d="M0.439453 6.55553H14.5605C14.8032 6.55553 15 6.40147 15 6.21144C15 6.02141 14.8032 5.86735 14.5605 5.86735H14.0332V1.56501C14.0332 0.700656 13.1401 0 12.0347 0C11.5731 0 11.1227 0.126372 10.7667 0.355076L10.4907 0.532374C9.87307 0.247767 9.06331 0.312776 8.53359 0.72754L7.87069 1.24659C7.69907 1.38096 7.69907 1.59882 7.87069 1.7332L9.52799 3.03084C9.69958 3.16522 9.97784 3.16525 10.1495 3.03084C10.8532 2.47984 10.8095 2.5118 10.8124 2.5118C11.3232 2.11188 11.4186 1.50802 11.0989 1.03183L11.3241 0.887129C11.5225 0.759678 11.7732 0.689025 12.0298 0.6882C12.6303 0.683979 13.1543 1.06622 13.1543 1.56501V5.86737C12.704 5.86737 0.885439 5.86737 0.439453 5.86737C0.196758 5.86737 0 6.02143 0 6.21146C0 6.40149 0.196758 6.55553 0.439453 6.55553Z" fill="white"/>
</svg>
