<svg width="15" height="10" viewBox="0 0 15 10" fill="none" xmlns="http://www.w3.org/2000/svg">
<path d="M15 4.11071V9.39591H13.5V7.63418H1.5V9.39591H0V0H1.5V5.87244H7.5V1.76173H12C12.7956 1.76173 13.5587 2.00921 14.1213 2.44973C14.6839 2.89025 15 3.48772 15 4.11071ZM4.5 5.2852C3.90326 5.2852 3.33097 5.09959 2.90901 4.7692C2.48705 4.43881 2.25 3.99071 2.25 3.52347C2.25 3.05622 2.48705 2.60812 2.90901 2.27773C3.33097 1.94734 3.90326 1.76173 4.5 1.76173C5.09674 1.76173 5.66903 1.94734 6.09099 2.27773C6.51295 2.60812 6.75 3.05622 6.75 3.52347C6.75 3.99071 6.51295 4.43881 6.09099 4.7692C5.66903 5.09959 5.09674 5.2852 4.5 5.2852Z" fill="white"/>
</svg>
