<svg width="353" height="269" viewBox="0 0 353 269" fill="none" xmlns="http://www.w3.org/2000/svg">
<path d="M48.8155 154.441C20.3842 166.154 4.41593 193.05 4.41593 193.05L0.910707 268.098L351.433 255.084L319.497 73.7529C319.497 73.7529 313.265 42.5189 278.602 42.5189C254.066 42.5189 264.971 0.307183 240.824 0.873513C214.729 1.48551 240.824 42.5189 204.603 42.5189C180.846 42.5189 190.193 76.615 166.435 78.091C148.178 79.2252 146.572 48.5922 126.32 51.195C106.067 51.195 115.415 83.0206 86.2045 88.9361C60.4995 94.1418 79.1941 146.632 48.8155 154.441Z" fill="url(#paint0_linear_131_775)" stroke="url(#paint1_linear_131_775)" stroke-width="1.73391" stroke-linecap="round"/>
<defs>
<linearGradient id="paint0_linear_131_775" x1="164.633" y1="-6.22288" x2="164.811" y2="216.041" gradientUnits="userSpaceOnUse">
<stop/>
<stop offset="0.9999" stop-color="white"/>
<stop offset="1" stop-color="#003191" stop-opacity="0"/>
</linearGradient>
<linearGradient id="paint1_linear_131_775" x1="176.172" y1="0.867865" x2="176.172" y2="268.098" gradientUnits="userSpaceOnUse">
<stop stop-color="#03030F"/>
<stop offset="0.9999"/>
<stop offset="1"/>
</linearGradient>
</defs>
</svg>
