<svg width="19" height="19" viewBox="0 0 19 19" fill="none" xmlns="http://www.w3.org/2000/svg">
<path d="M13.9268 1.5915C14.1554 1.36289 14.4268 1.18154 14.7255 1.05782C15.0242 0.934094 15.3444 0.870415 15.6677 0.870415C15.991 0.870415 16.3111 0.934094 16.6098 1.05782C16.9085 1.18154 17.1799 1.36289 17.4085 1.5915C17.6371 1.82011 17.8185 2.09151 17.9422 2.39021C18.0659 2.6889 18.1296 3.00904 18.1296 3.33235C18.1296 3.65565 18.0659 3.97579 17.9422 4.27449C17.8185 4.57318 17.6371 4.84458 17.4085 5.07319L5.65778 16.8239L0.870445 18.1296L2.17608 13.3422L13.9268 1.5915Z" stroke="white" stroke-width="1.73391" stroke-linecap="round" stroke-linejoin="round"/>
</svg>
